<?xml version="1.0" encoding="UTF-8"?>
<svg xmlns="http://www.w3.org/2000/svg" viewBox="0 0 64 64">
  <defs>
    <linearGradient id="water" x1="0%" y1="0%" x2="100%" y2="100%">
      <stop offset="0%" stop-color="#1f6f5b" />
      <stop offset="100%" stop-color="#0f1f2f" />
    </linearGradient>
  </defs>
  <rect width="64" height="64" rx="10" ry="10" fill="url(#water)" />
  <g fill="#f4f9f7">
    <!-- body -->
    <path
      d="M18 29c4.2-6 12.6-9.5 21.5-7.8l8.5 1.7c2.8.6 4.6 3.1 4.2 5.8L51 31l-2.8 4.8c-.5.9-1.1 1.7-1.9 2.4-2.4 2.2-5.8 3.9-9.9 4.7-4.1.8-8.2.4-11.8-1-2.6-1-5-1.5-7.1-1.3L13 41c-1 .1-1.8-.8-1.5-1.8l1.7-5.6 1.7-5.6c.4-1 1.7-1.2 2.4-.4z"
    />
    <!-- dorsal fin -->
    <path
      d="M26 22.5 28.6 16c.3-.8 1.6-.7 1.7.2l.6 5.3c.1 1-.9 1.7-1.8 1.3l-3.1-1.3z"
      fill-opacity=".9"
    />
    <!-- pectoral fin -->
    <path
      d="M23.5 35.5 19 37.7c-.8.4-1.7-.3-1.5-1.2l.7-3.1c.2-.9 1.2-1.3 1.9-.8l3.4 2.2z"
      fill-opacity=".85"
    />
    <!-- anal fin -->
    <path
      d="M34 42.5 30.5 45c-.7.5-1.7.1-1.8-.7l-.4-3c-.1-.8.6-1.5 1.4-1.4l3.3.6z"
      fill-opacity=".85"
    />
    <!-- barbels -->
    <path
      d="M45.5 34.2c2.2 1 4.3 2.5 5.9 4.5.5.7 0 1.7-.9 1.6-1.7-.2-3.4-1-4.8-2.2-.7-.6-1.3-1.3-1.7-2.1l1.5-1.8z"
      fill-opacity=".85"
    />
    <path
      d="M46 32.4c1.7.1 3.5-.1 5.2-.7.9-.3 1.6.8 1 1.5-1.1 1.2-2.7 2-4.4 2.2-.9.1-1.7 0-2.5-.3l.7-2.7z"
      fill-opacity=".85"
    />
  </g>
  <circle cx="40.5" cy="29.5" r="3.2" fill="#0f1f2f" />
  <circle cx="42" cy="28.5" r="1.2" fill="#f4f9f7" />
</svg>
